/* XPM */
static char *richcoin32[] = {
/* columns rows colors chars-per-pixel */
"32 32 225 2",
"   c black",
".  c #030302020000",
"X  c #050504040101",
"o  c #060604040101",
"O  c #0D0D0B0B0404",
"+  c #141410100505",
"@  c #222219190505",
"#  c #24241E1E0A0A",
"$  c #323224240606",
"%  c #343426260707",
"&  c #3F3F2D2D0707",
"*  c #3C3C2C2C0808",
"=  c #39392F2F1010",
"-  c #000078780000",
";  c #010178780000",
":  c #020278780202",
">  c #040479790101",
",  c #040479790303",
"<  c #080879790202",
"1  c #090979790202",
"2  c #0B0B7B7B0303",
"3  c #0D0D7A7A0303",
"4  c #0E0E7A7A0404",
"5  c #0F0F7C7C0404",
"6  c #0E0E79790E0E",
"7  c #10107C7C0404",
"8  c #1C1C7F7F0707",
"9  c #14147A7A1414",
"0  c #171779791717",
"q  c #1D1D7C7C1414",
"w  c #22227D7D0909",
"e  c #28287C7C1D1D",
"r  c #31317F7F0D0D",
"t  c #24247B7B2424",
"y  c #27277B7B2727",
"u  c #39397C7C3939",
"i  c #3B3B7C7C3B3B",
"p  c #3C3C7C7C3C3C",
"a  c #4C4C37370909",
"s  c #4C4C38380909",
"d  c #434337371212",
"f  c #4B4B3E3E1515",
"g  c #4C4C3F3F1414",
"h  c #4E4E41411515",
"j  c #575742421010",
"k  c #40407C7C3F3F",
"l  c #606047470D0D",
"z  c #69694C4C0E0E",
"x  c #6A6A57571B1B",
"c  c #7D7D5A5A0E0E",
"v  c #7D7D5A5A0F0F",
"b  c #747460602020",
"n  c #43437C7C4343",
"m  c #43437D7D4242",
"M  c #44447D7D4444",
"N  c #4B4B7D7D4A4A",
"B  c #51517D7D5050",
"V  c #59597D7D5757",
"C  c #58587D7D5858",
"Z  c #59597D7D5858",
"A  c #5C5C7E7E5C5C",
"S  c #5E5E7E7E5D5D",
"D  c #7B7B7F7F7B7B",
"F  c #7E7E7F7F7E7E",
"G  c gray50",
"H  c #282882820A0A",
"J  c #2A2A82820B0B",
"K  c #292981811212",
"L  c #333381810E0E",
"P  c #373786860E0E",
"I  c #414189891111",
"U  c #5C5C85851818",
"Y  c #5E5E86861818",
"T  c #464684842929",
"R  c #6F6F8E8E1D1D",
"E  c #767682825A5A",
"W  c #8A8A64641010",
"Q  c #8B8B64641010",
"!  c #909068681212",
"~  c #98986D6D1212",
"^  c #94947A7A2626",
"/  c #9C9C78782020",
"(  c #A5A577771313",
")  c #A5A577771414",
"_  c #A7A778781313",
"`  c #A6A678781414",
"'  c #A7A779791515",
"]  c #A8A87A7A1515",
"[  c #A8A87B7B1717",
"{  c #A9A97C7C1717",
"}  c #ABAB7D7D1717",
"|  c #A9A97C7C1818",
" . c #80808B8B2121",
".. c #8E8E8D8D2525",
"X. c #93938F8F2626",
"o. c #9E9E8F8F2929",
"O. c #9C9CA0A02929",
"+. c #AAAA81811D1D",
"@. c #AAAA81811E1E",
"#. c #ABAB82821F1F",
"$. c #ADAD84841F1F",
"%. c #AFAF84841F1F",
"&. c #AFAF85851F1F",
"*. c #B0B085851F1F",
"=. c #A3A387872B2B",
"-. c #ACAC86862222",
";. c #ACAC87872323",
":. c #ACAC85852424",
">. c #ADAD87872525",
",. c #ADAD88882626",
"<. c #AFAF88882525",
"1. c #ACAC8E8E2D2D",
"2. c #ADAD92922D2D",
"3. c #AEAE91913333",
"4. c #ACAC92923D3D",
"5. c #B1B187872222",
"6. c #B3B388882121",
"7. c #B3B38C8C2525",
"8. c #B4B48C8C2525",
"9. c #B6B68E8E2626",
"0. c #B2B28D8D2828",
"q. c #B8B88F8F2626",
"w. c #B1B191912E2E",
"e. c #B1B191912F2F",
"r. c #B0B092922E2E",
"t. c #B1B192922E2E",
"y. c #B1B192922F2F",
"u. c #B2B292922E2E",
"i. c #B2B293932F2F",
"p. c #B2B294942E2E",
"a. c #B3B394942F2F",
"s. c #B1B19E9E2F2F",
"d. c #B8B890902626",
"f. c #BDBD94942727",
"g. c #BDBD95952A2A",
"h. c #BFBF9D9D2F2F",
"j. c #B2B293933030",
"k. c #B3B394943030",
"l. c #B3B395953636",
"z. c #B4B495953030",
"x. c #B5B595953030",
"c. c #B5B596963030",
"v. c #B6B697973030",
"b. c #B7B797973030",
"n. c #B7B797973131",
"m. c #B8B898983131",
"M. c #B9B999993131",
"N. c #B9B999993232",
"B. c #BABA99993131",
"V. c #BABA9A9A3232",
"C. c #BBBB9A9A3232",
"Z. c #BBBB9B9B3333",
"A. c #BCBC9B9B3232",
"S. c #BCBC9B9B3333",
"D. c #BDBD9C9C3333",
"F. c #BEBE9D9D3232",
"G. c #BEBE9E9E3535",
"H. c #BFBF9E9E3434",
"J. c #BFBF9F9F3434",
"K. c #B9B99A9A3838",
"L. c #A7A7A3A32B2B",
"P. c #ACACA1A12D2D",
"I. c #BCBCA8A83030",
"U. c #9B9B8A8A5151",
"Y. c #8F8F87876C6C",
"T. c #868682827373",
"R. c #868682827777",
"E. c #898984847777",
"W. c #8F8F88887171",
"Q. c #929286866161",
"!. c #919186866464",
"~. c #94948B8B6D6D",
"^. c #99998E8E6868",
"/. c #A3A38D8D4545",
"(. c #A2A28D8D4A4A",
"). c #A1A18F8F5454",
"_. c #A4A494945F5F",
"`. c #AEAE99995656",
"'. c #B1B199994B4B",
"]. c #A0A091916363",
"[. c #BCBCA1A14A4A",
"{. c #C0C097972A2A",
"}. c #C1C1A0A03434",
"|. c #C2C2A1A13636",
" X c #C3C3A2A23434",
".X c #C3C3A2A23535",
"XX c #C4C4A2A23434",
"oX c #C5C5A3A33535",
"OX c #C4C4A2A23636",
"+X c #C7C7A4A43636",
"@X c #C0C0A9A93131",
"#X c #C7C7ABAB3434",
"$X c #C8C8A5A53535",
"%X c #C9C9A6A63535",
"&X c #C9C9A6A63636",
"*X c #CACAA7A73535",
"=X c #CBCBA7A73535",
"-X c #CACAA7A73636",
";X c #CBCBA7A73636",
":X c #C9C9A9A93535",
">X c #CCCCA8A83535",
",X c #CDCDA9A93535",
"<X c #CDCDA9A93636",
"1X c #CECEA9A93535",
"2X c #CECEAAAA3535",
"3X c #CECEAAAA3636",
"4X c #CECEAAAA3737",
"5X c #CFCFABAB3636",
"6X c #CFCFABAB3737",
"7X c #CACAA9A93B3B",
"8X c #CDCDABAB3B3B",
"9X c #CFCFACAC3939",
"0X c #D0D0ABAB3535",
"qX c #D0D0ABAB3636",
"wX c #D0D0ACAC3636",
"eX c #D1D1ACAC3636",
"rX c #D1D1ACAC3737",
"tX c #D1D1ADAD3737",
"yX c #D2D2ADAD3636",
"uX c #D2D2ADAD3737",
"iX c #D2D2AEAE3636",
"pX c #D3D3AEAE3636",
"aX c #D3D3AEAE3737",
"sX c #C7C7A7A74242",
"dX c None",
/* pixels */
"dXdXdXdXdXdXdXdXdXdXdXdXdXdXdXdXdXdXdXdXdXdXdXdXdXdXdXdXdXdXdXdX",
"dXdXdXdXdXdXdXdXdXdXdXdXdXdXdXo   dXdXdXdXdXdXdXdXdXdXdXdXdXdXdX",
"dXdXdXdXdXdXdXdXdXdXo % z Q ) _ _ ` Q z % X dXdXdXdXdXdXdXdXdXdX",
"dXdXdXdXdXdXdXdXo a ~ _ _ _ _ _ _ _ _ _ _ ~ s X dXdXdXdXdXdXdXdX",
"dXdXdXdXdXdXdX@ ! _ _ _ _ _ ) ) _ _ ` ` _ _ _ ! @ dXdXdXdXdXdXdX",
"dXdXdXdXdXdX* ( _ _ _ _ ] -.q.f.8.-.@.` _ _ _ _ _ * dXdXdXdXdXdX",
"dXdXdXdXdX* _ _ _ _ | 0.$XpXuX}.u.u.c.>X{.} _ _ _ _ * dXdXdXdXdX",
"dXdXdXdX@ ( _ _ _ -.C.2X9X8XK.3.3.l.7XuXpXwX6._ _ _ _ @ dXdXdXdX",
"dXdXdXX ! _ _ _ <..XwXwX~.G G G G G G ^.wX.X2./ c c c l dXdXdXdX",
"dXdXdXa _ _ _ &..XwXpX2X4.(.T.G G W.[.sXG.u.u.1.= dXdXdXdXdXdXdX",
"dXdXX ~ _ _ | $XpXpXP.L r r t y y T O.B.u.u.a.+Xh.O dXdXdXdXdXdX",
"dXdX% _ _ _ g.pXpXoX2...< : M S p - - Y 2.z.+XpXwXb dXdXdXdXdXdX",
"dXdXz _ _ ` 2XwXF.u.u.a.4 - A G G u - 1 a.>XpXpXwX=.dXdXdXdXdXdX",
"dXdXQ _ _ *.wXB.u.u.a.>X5 - S G G B - - >XpXpX6XB.a.# dXdXdXdXdX",
"dXdX` _ _ 8.b.u.u.c.2XpX5 - Z E G u - P pXpX6Xb.u.u.d dXdXdXdXdX",
"dX  _ _ _ ;.u.u.b.6XwXpX5 - n S p < I @XwX>Xz.2.u.a.h dXdXdXdXdX",
"dXo _ _ _ >.u.B.uXpXwXwX5 - 0 9 - K L.wX$Xz.u.u.a.>Xx dXdXdXdXdX",
"dXdX) _ _ -.C.wXpXpXaXG.4 - C G M - 5 P.a.u.u.z.2XwXh dXdXdXdXdX",
"dXdXQ _ _ *.pXpXpXuXZ.u.4 - Z G F 6 - Y u.u.B.wXwXpX+ dXdXdXdXdX",
"dXdXz _ _ ] qXpXuXB.u.u.4 - Z G G u - w u.F.wXpXpX^ dXdXdXdXdXdX",
"dXdX% _ _ _ {.qXb.u.2.o.1 : N D G E > - R #XwXpX>Xf dXdXdXdXdXdX",
"dXdXX ~ _ _ { c.u.u.X.J J K q n G Q. .J 3 H I..Xu.j & & $ dXdXdX",
"dXdXdXa _ _ ] @.u.c.2XwXaX8XW.G G !.$XpXwXwXF.u.@.` _ _ s dXdXdX",
"dXdXdXX ! _ _ ` <.9XpXwX].E.G E G G E.].6Xa.a.-._ _ _ ! X dXdXdX",
"dXdXdXdX@ ( _ _ _ 6.6X+X(.U.U.).`.`.`.'.a.u.@._ _ _ _ @ dXdXdXdX",
"dXdXdXdXdX* _ _ _ _ { <.u.a.V.wXpXwX.Xu.<.{ _ _ _ _ * dXdXdXdXdX",
"dXdXdXdXdXdX* ( _ _ _ _ ` @.9.f.f.9.@.` _ _ _ _ _ * dXdXdXdXdXdX",
"dXdXdXdXdXdXdX@ ! _ _ _ _ _ _ _ _ _ _ _ _ _ _ ! @ dXdXdXdXdXdXdX",
"dXdXdXdXdXdXdXdXX s ~ _ _ _ _ _ _ _ _ _ _ ~ s X dXdXdXdXdXdXdXdX",
"dXdXdXdXdXdXdXdXdXdXX % z W ` _ _ ` W z % X dXdXdXdXdXdXdXdXdXdX",
"dXdXdXdXdXdXdXdXdXdXdXdXdXdXdX. . dXdXdXdXdXdXdXdXdXdXdXdXdXdXdX",
"dXdXdXdXdXdXdXdXdXdXdXdXdXdXdXdXdXdXdXdXdXdXdXdXdXdXdXdXdXdXdXdX"
};
