/* XPM */
static char *richcoin80[] = {
/* columns rows colors chars-per-pixel */
"80 80 150 2",
"   c black",
".  c #090907070202",
"X  c #0C0C09090202",
"o  c #11110D0D0202",
"O  c #1A1A13130404",
"+  c #1C1C17170808",
"@  c #222219190505",
"#  c #23231D1D0A0A",
"$  c #2D2D25250E0E",
"%  c #323226260909",
"&  c #37372B2B0C0C",
"*  c #34342B2B1111",
"=  c #3D3D33331313",
"-  c #000078780000",
";  c #0B0B7A7A0303",
":  c #0B0B79790A0A",
">  c #13137B7B0505",
",  c #19197C7C0606",
"<  c #121279791212",
"1  c #1E1E7A7A1C1C",
"2  c #22227D7D0909",
"3  c #2B2B7D7D1111",
"4  c #33337F7F0D0D",
"5  c #23237B7B2323",
"6  c #33337C7C3333",
"7  c #3C3C7C7C3C3C",
"8  c #40402F2F0909",
"9  c #404031310909",
"0  c #4E4E39390A0A",
"q  c #47473A3A1212",
"w  c #48483C3C1313",
"e  c #50503B3B0A0A",
"r  c #4E4E41411616",
"t  c #5A5A42420D0D",
"y  c #5D5D4B4B0E0E",
"u  c #575747471616",
"i  c #585849491A1A",
"p  c #747454540E0E",
"a  c #72725D5D1D1D",
"s  c #7A7A5A5A1212",
"d  c #616151512020",
"f  c #44447E7E4444",
"g  c #4B4B7E7E4B4B",
"h  c #5B5B7F7F5B5B",
"j  c #62627F7F6161",
"k  c #6B6B7F7F6B6B",
"l  c #74747F7F7474",
"z  c gray50",
"x  c #262682820A0A",
"c  c #2A2A82820B0B",
"v  c #323282820D0D",
"b  c #3C3C87870F0F",
"n  c #3D3D87871010",
"m  c #414188881111",
"M  c #484882821212",
"N  c #4C4C8B8B1313",
"B  c #515184841515",
"V  c #56568E8E1616",
"C  c #5D5D85851818",
"Z  c #5A5A8F8F1717",
"A  c #5D5D8F8F1818",
"S  c #5A5A8C8C2121",
"D  c #656587871A1A",
"F  c #636388881B1B",
"G  c #646491911919",
"H  c #6E6E94941C1C",
"J  c #747496961E1E",
"K  c #737388882C2C",
"L  c #7B7B8B8B2020",
"P  c #626280806262",
"I  c #6C6C80806C6C",
"U  c #707080806F6F",
"Y  c #717181817171",
"T  c #7C7C80807B7B",
"R  c #858560600F0F",
"E  c #8C8C66661010",
"W  c #8F8F6A6A1414",
"Q  c #93936A6A1212",
"!  c #99996E6E1212",
"~  c #9C9C71711212",
"^  c #86866F6F2525",
"/  c #A7A777771212",
"(  c #A7A778781313",
")  c #A6A67C7C1B1B",
"_  c #A8A87A7A1515",
"`  c #A9A97D7D1A1A",
"'  c #80807F7F8080",
"]  c #82828B8B2222",
"[  c #84848A8A2828",
"{  c #8A8A9B9B2323",
"}  c #94948E8E2626",
"|  c #9E9E84842D2D",
" . c #9D9D8F8F2929",
".. c #94949C9C2A2A",
"X. c #99999F9F2727",
"o. c #ACAC82821E1E",
"O. c #B3B389891F1F",
"+. c #A5A58B8B2B2B",
"@. c #ACAC84842323",
"#. c #ACAC86862929",
"$. c #AFAF88882626",
"%. c #AEAE8C8C2C2C",
"&. c #A6A68D8D3737",
"*. c #A9A98F8F3A3A",
"=. c #A5A592922B2B",
"-. c #ACAC92922D2D",
";. c #A9A999992C2C",
":. c #AEAE91913434",
">. c #ABAB90903939",
",. c #B0B087872424",
"<. c #B3B38A8A2323",
"1. c #B2B28D8D2C2C",
"2. c #B0B08F8F3131",
"3. c #B1B192922E2E",
"4. c #B9B994942C2C",
"5. c #B8B898982F2F",
"6. c #B4B494943131",
"7. c #B1B193933838",
"8. c #B3B39F9F3030",
"9. c #B9B995953030",
"0. c #BABA9A9A3333",
"q. c #BCBC9C9C3939",
"w. c #ACACA4A42C2C",
"e. c #B0B0A5A52D2D",
"r. c #B5B5A1A13232",
"t. c #BDBDA4A43535",
"y. c #BBBBA8A83131",
"u. c #868682827474",
"i. c #828280807C7C",
"p. c #94948B8B6B6B",
"a. c #A3A38C8C4545",
"s. c #ACAC93934040",
"d. c #A7A793935454",
"f. c #B7B79E9E4F4F",
"g. c #BABA9E9E4444",
"h. c #B5B59D9D5151",
"j. c #BCBCA1A14949",
"k. c #C2C29D9D2E2E",
"l. c #C1C19F9F3535",
"z. c #C4C4A2A23535",
"x. c #C4C4A3A33939",
"c. c #C9C9A6A63636",
"v. c #C9C9A7A73A3A",
"b. c #CDCDAAAA3636",
"n. c #CCCCAAAA3B3B",
"m. c #D3D3AEAE3636",
"M. c #D1D1ADAD3939",
"N. c #C4C4A6A64343",
"B. c #808080808080",
"V. c None",
/* pixels */
"V.V.V.V.V.V.V.V.V.V.V.V.V.V.V.V.V.V.V.V.V.V.V.V.V.V.V.V.V.V.V.V.V.V.V.V.V.V.V.V.V.V.V.V.V.V.V.V.V.V.V.V.V.V.V.V.V.V.V.V.V.V.V.V.V.V.V.V.V.V.V.V.V.V.V.V.V.V.V.V.",
"V.V.V.V.V.V.V.V.V.V.V.V.V.V.V.V.V.V.V.V.V.V.V.V.V.V.V.V.V.V.V.V.V.V.V.V.V.V.V.V.V.V.V.V.V.V.V.V.V.V.V.V.V.V.V.V.V.V.V.V.V.V.V.V.V.V.V.V.V.V.V.V.V.V.V.V.V.V.V.V.",
"V.V.V.V.V.V.V.V.V.V.V.V.V.V.V.V.V.V.V.V.V.V.V.V.V.V.V.V.V.V.V.V.V.V.V.V.V.V.V.V.V.V.V.V.V.V.V.V.V.V.V.V.V.V.V.V.V.V.V.V.V.V.V.V.V.V.V.V.V.V.V.V.V.V.V.V.V.V.V.V.",
"V.V.V.V.V.V.V.V.V.V.V.V.V.V.V.V.V.V.V.V.V.V.V.V.V.V.V.V.V.V.V.V.V.V.V.V.V.V.V.V.V.V.V.V.V.V.V.V.V.V.V.V.V.V.V.V.V.V.V.V.V.V.V.V.V.V.V.V.V.V.V.V.V.V.V.V.V.V.V.V.",
"V.V.V.V.V.V.V.V.V.V.V.V.V.V.V.V.V.V.V.V.V.V.V.V.V.V.V.V.V.V.V.V.V.V.V.V.V.V.V.o o V.V.V.V.V.V.V.V.V.V.V.V.V.V.V.V.V.V.V.V.V.V.V.V.V.V.V.V.V.V.V.V.V.V.V.V.V.V.V.",
"V.V.V.V.V.V.V.V.V.V.V.V.V.V.V.V.V.V.V.V.V.V.V.V.V.V.V.V.V.V.. o 9 t p Q ` _ ( ( ( ( ( ` ! p t & o . V.V.V.V.V.V.V.V.V.V.V.V.V.V.V.V.V.V.V.V.V.V.V.V.V.V.V.V.V.V.",
"V.V.V.V.V.V.V.V.V.V.V.V.V.V.V.V.V.V.V.V.V.V.V.V.V.V.V.  @ t W ( ( ( ( ( ( ( ( ( ( ( ( ( ( ( ( ( _ W t @   V.V.V.V.V.V.V.V.V.V.V.V.V.V.V.V.V.V.V.V.V.V.V.V.V.V.V.",
"V.V.V.V.V.V.V.V.V.V.V.V.V.V.V.V.V.V.V.V.V.V.V.V.V.X 0 W ( ( ( ( ( ( ( ( ( ( ( ( ( ( ( ( ( ( ( ( / / ( _ Q 0 X V.V.V.V.V.V.V.V.V.V.V.V.V.V.V.V.V.V.V.V.V.V.V.V.V.",
"V.V.V.V.V.V.V.V.V.V.V.V.V.V.V.V.V.V.V.V.V.V.V.X t ~ ( ( ( ( ( ( ( ( ( ( ( ( ( ( ( ( ( ( ( ( ( ( ( ( ( ( ( ( ~ t X V.V.V.V.V.V.V.V.V.V.V.V.V.V.V.V.V.V.V.V.V.V.V.",
"V.V.V.V.V.V.V.V.V.V.V.V.V.V.V.V.V.V.V.V.V.. 0 ! ( ( ( ( ( ( ( ( ( ( ( ( ( ( ( ( ( ( ( ( ( ( ( ( ( ( ( ( ( ( ( ( ! e . V.V.V.V.V.V.V.V.V.V.V.V.V.V.V.V.V.V.V.V.V.",
"V.V.V.V.V.V.V.V.V.V.V.V.V.V.V.V.V.V.V.V.% E ( ( ( ( ( ( ( ( ( ( ( ( ( ( ( ( ( ( ( ( ( ( ( ( ( ( ( ( ( ( ( ( ( ( _ ( E % V.V.V.V.V.V.V.V.V.V.V.V.V.V.V.V.V.V.V.V.",
"V.V.V.V.V.V.V.V.V.V.V.V.V.V.V.V.V.V.. t _ _ ( ( ( ( ( ( ( ( ( ( ( ( ( ( ( ( ( ( ( ( ( ( ( ( ( ( ( ( ( ( ( ( ( ( ( ( ( ( t . V.V.V.V.V.V.V.V.V.V.V.V.V.V.V.V.V.V.",
"V.V.V.V.V.V.V.V.V.V.V.V.V.V.V.V.V.O s ( ( ( ( ( ( ( ( ( ( ( ( ( ( ( ( ( ( ( ( ( ( ( _ ( ( ( ( ( ( ( ( ( ( ( ( ( ( ( ( ( / s O V.V.V.V.V.V.V.V.V.V.V.V.V.V.V.V.V.",
"V.V.V.V.V.V.V.V.V.V.V.V.V.V.V.V.O Q ( ( ( ( ( ( ( ( ( ( ( ( ( ( ( ( ( ) ) ,.o.<.O.o.@.o.` ( ( / ( ( ( ( ( ( ( ( ( ( ( ( _ / Q O V.V.V.V.V.V.V.V.V.V.V.V.V.V.V.V.",
"V.V.V.V.V.V.V.V.V.V.V.V.V.V.V.& Q ( ( ( ( ( ( ( ( ( ( ( ( ( ( ) ,.4.l.M.M.m.m.m.b.9.3.3.3.6.%.@.( ( ( ( ( ( ( ( ( ( ( ( ( ( ( Q & V.V.V.V.V.V.V.V.V.V.V.V.V.V.V.",
"V.V.V.V.V.V.V.V.V.V.V.V.V.V.& _ ( ( ( ( ( ( ( ( ( ( ( ( ( @.1.x.M.m.m.m.m.m.m.z.3.3.3.3.3.3.3.3.x.l.,._ ( ( ( ( ( ( ( ( ( ( ( ( _ & V.V.V.V.V.V.V.V.V.V.V.V.V.V.",
"V.V.V.V.V.V.V.V.V.V.V.V.V.O Q ( ( ( ( ( ( ( ( ( ( ( _ @.3.0.v.m.m.m.m.m.m.m.0.6.3.3.3.3.3.3.3.v.m.m.m.c.<.( ( ( ( ( ( ( ( ( ( ( ( Q O V.V.V.V.V.V.V.V.V.V.V.V.V.",
"V.V.V.V.V.V.V.V.V.V.V.V.O Q ( ( ( ( ( ( ( ( ( ( ( ` 3.0.0.b.m.m.m.m.m.m.b.q.6.-.3.3.3.3.3.6.b.m.m.m.m.m.m.z.o.( ( ( ( ( ( ( ( ( ( ( Q O V.V.V.V.V.V.V.V.V.V.V.V.",
"V.V.V.V.V.V.V.V.V.V.V.. s ( ( ( ( ( ( ( ( ( ( _ $.0.0.0.b.m.m.m.m.m.m.b.0.3.6.6.3.3.3.3.6.b.m.m.m.m.m.m.m.m.M.1.( ( ( ( ( ( ( ( ( ( ( s . V.V.V.V.V.V.V.V.V.V.V.",
"V.V.V.V.V.V.V.V.V.V.V.t ( ( ( ( ( ( ( ( ( _ ( 1.5.0.t.b.m.m.b.N.N.N.N.s.*.*.*.*.>.>.>.s.N.N.N.N.N.M.m.m.m.M.m.v.1.( ( ( ( ( ( ( ( ( ( ( t V.V.V.V.V.V.V.V.V.V.V.",
"V.V.V.V.V.V.V.V.V.V.% ( ( ( ( ( ( ( ( ( ( ` 0.0.0.z.m.m.m.m.h.z z z z z z z z z ' z z z z z z z z N.m.m.m.m.x.6.3.7.) / ( ( ( ( _ _ ( ( ( % V.V.V.V.V.V.V.V.V.V.",
"V.V.V.V.V.V.V.V.V.. E ( ( ( ( ( ( ( ( ( ` 3.0.0.v.m.m.m.m.m.h.z z z z z z z z z z z z z ' B.z z z N.m.m.M.l.3.3.3.3.2.Q Q Q Q Q Q Q Q Q R y V.V.V.V.V.V.V.V.V.V.",
"V.V.V.V.V.V.V.V.V.e ( ( ( ( ( ( ( ( ( ( 6.0.0.b.m.m.m.m.m.m.h.i.z z z z z z z z z z z z B.i.B.i.i.N.M.M.l.6.:.3.3.3.6.= V.V.V.V.V.V.V.V.V.V.V.V.V.V.V.V.V.V.V.V.",
"V.V.V.V.V.V.V.V.X ! ( ( ( ( ( ( ( ( ( 1.0.t.b.m.m.m.m.m.m.b.q.:.*.*.a.u.z z z z z z z z p.j.N.N.b.M.M.q.6.6.3.3.3.3.6.6.d V.V.V.V.V.V.V.V.V.V.V.V.V.V.V.V.V.V.V.",
"V.V.V.V.V.V.V.V.t ( ( ( ( ( ( ( ( ( ,.0.x.M.m.m.m.m.m.m.b.0.3.3.3.3.3.a.z z z z T z z ' n.m.m.m.M.M.0.3.3.3.3.3.3.3.3.3.z.9 V.V.V.V.V.V.V.V.V.V.V.V.V.V.V.V.V.V.",
"V.V.V.V.V.V.V.X ~ ( ( ( ( ( ( ( ( o.0.v.m.m.m.m.m.m.b...L L L L L L L K h h h h P P I l n.m.m.M.n.6.3.3.3.3.3.3.3.3.3.v.m.k.X V.V.V.V.V.V.V.V.V.V.V.V.V.V.V.V.V.",
"V.V.V.V.V.V.V.0 ( ( ( ( ( ( ( ( ( 6.v.m.m.m.m.m.m.m.r.; - - - - - - - - - - - - - - - : c J y.n.6.6.3.3.3.3.3.3.3.6.c.m.m.m.a V.V.V.V.V.V.V.V.V.V.V.V.V.V.V.V.V.",
"V.V.V.V.V.V.  W ( ( ( ( ( ( ( ( ,.b.m.m.m.m.m.m.b.l.=.2 > ; - - - - - - - - - - - - - - - - ; F -.3.3.3.3.3.3.3.3.c.m.m.m.m.b.* V.V.V.V.V.V.V.V.V.V.V.V.V.V.V.V.",
"V.V.V.V.V.V.@ _ ( ( ( ( ( ( ( ( x.m.m.m.m.m.m.M.q.3.3.-.=.} ; - - - - 1 Y Y k h 7 < - - - - - - B 3.3.3.3.3.3.6.n.m.m.m.m.m.m.+.  V.V.V.V.V.V.V.V.V.V.V.V.V.V.V.",
"V.V.V.V.V.V.t ( ( ( ( ( ( ( / @.m.m.m.m.m.m.b.0.3.3.3.3.3.3.2 - - - - 1 z z ' ' ' l 6 - - - - - - ] 3.3.3.3.q.m.m.m.m.m.m.m.M.M.$ V.V.V.V.V.V.V.V.V.V.V.V.V.V.V.",
"V.V.V.V.V.. W ( ( ( ( ( ( ( ( 5.m.m.m.m.m.v.6.3.3.3.3.3.3.3.2 - - - - 1 i.z ' z z z B.5 - - - - - v 3.3.3.0.m.m.m.m.m.m.m.m.m.M.w V.V.V.V.V.V.V.V.V.V.V.V.V.V.V.",
"V.V.V.V.V.o _ / ( ( ( ( ( ( ` c.m.m.m.m.z.6.3.3.3.3.3.3.3.3.2 - - - - 1 z z z z z z B.P - - - - - ; 3.3.0.M.m.m.m.m.m.m.m.m.b.6.^ V.V.V.V.V.V.V.V.V.V.V.V.V.V.V.",
"V.V.V.V.V.9 ( ( ( ( ( ( ( ( @.m.m.m.m.x.3.3.3.3.3.3.3.3.6.v.c - - - - 5 z z z z z z z T : - - - - - =.x.m.m.m.m.m.m.m.m.m.c.6.3.3.+ V.V.V.V.V.V.V.V.V.V.V.V.V.V.",
"V.V.V.V.V.t ( ( ( ( ( ( ( _ 4.m.m.m.0.3.3.3.3.3.3.3.3.6.v.m.x - - - - 3 z z z z z z z z : - - - - - 8.m.m.m.m.m.m.m.m.m.c.6.3.3.3.i V.V.V.V.V.V.V.V.V.V.V.V.V.V.",
"V.V.V.V.V.p ( ( ( ( ( ( ( / l.m.b.6.3.3.3.3.3.3.3.3.6.v.m.m.x - - - - 1 z z z z z z z i.: - - - - - M.m.m.m.m.m.m.m.m.z.3.3.3.3.3.a V.V.V.V.V.V.V.V.V.V.V.V.V.V.",
"V.V.V.V.V.! ( ( ( ( ( ( ( ) m.v.5.3.3.3.3.3.3.3.3.6.b.m.m.m.x - - - - 1 z z z z z z z I - - - - - b m.m.m.m.m.m.m.m.x.3.3.3.3.3.3.+.V.V.V.V.V.V.V.V.V.V.V.V.V.V.",
"V.V.V.V.V.` ( ( ( ( ( ( ( ) z.3.3.3.3.3.3.3.3.3.0.b.m.m.m.m.x - - - - 1 z z z z T z z f - - - - - X.m.m.m.m.m.m.m.0.3.3.3.3.3.3.3.+.V.V.V.V.V.V.V.V.V.V.V.V.V.V.",
"V.V.V.V.V.( ( ( ( ( ( ( ( #.3.3.3.3.3.3.3.3.3.q.m.m.m.m.m.m.x - - - - 1 z z z z T T k : - - - - A m.m.m.m.m.m.M.0.3.3.3.3.3.3.3.3.+.V.V.V.V.V.V.V.V.V.V.V.V.V.V.",
"V.V.V.V.V.( ( ( ( ( ( ( ( o.3.3.3.3.3.3.3.3.0.M.m.m.m.m.m.m.x - - - - 5 z z z z T P : - - - ; H M.m.m.m.m.m.b.3.3.3.3.3.3.3.3.3.3.%.V.V.V.V.V.V.V.V.V.V.V.V.V.V.",
"V.V.V.V.X ( ( ( ( ( ( ( ( o.3.3.3.3.3.3.3.x.M.m.m.m.m.m.m.M.x - - - - : 6 6 6 5 : - - - ; V e.m.m.m.m.m.m.c.6.3.3.3.3.3.3.3.3.3.6.v.# V.V.V.V.V.V.V.V.V.V.V.V.V.",
"V.V.V.V.o ( ( ( ( ( ( ( ( o.3.3.3.3.3.3.v.m.m.m.m.m.m.m.m.m.x - - - - - - - - - - - - 6 y.m.m.m.m.m.m.m.c.0.3.3.3.3.3.3.3.3.3.0.M.m.& V.V.V.V.V.V.V.V.V.V.V.V.V.",
"V.V.V.V.V.( ( ( ( ( ( ( ( o.3.3.3.3.6.v.m.m.m.m.m.m.m.m.m.m.c - - - - - < < : - - - - - ; G b.m.m.m.m.v.3.3.3.3.3.3.3.3.3.3.0.m.m.m.& V.V.V.V.V.V.V.V.V.V.V.V.V.",
"V.V.V.V.V.( ( ( ( ( ( ( ( #.3.3.3.6.v.m.m.m.m.m.m.m.m.m.m.n.x - - - - 5 z z l h 1 - - - - - n b.m.m.x.3.3.3.3.3.3.3.3.3.3.z.m.m.m.m.$ V.V.V.V.V.V.V.V.V.V.V.V.V.",
"V.V.V.V.V.` ( ( ( ( ( ( ( o.3.3.6.b.m.m.m.m.m.m.m.m.m.m.n.6., - - - - 1 z z z z l 5 - - - - - G M.0.3.3.3.3.3.3.3.3.3.6.v.m.m.m.m.z.V.V.V.V.V.V.V.V.V.V.V.V.V.V.",
"V.V.V.V.V.Q ( ( ( ( ( ( ( ` 3.6.b.m.m.m.m.m.m.m.m.m.m.v.6.3.2 - - - - 5 z z z z ' l : - - - - ; ;.3.3.3.3.3.3.3.3.3.3.c.m.m.m.m.m.+.V.V.V.V.V.V.V.V.V.V.V.V.V.V.",
"V.V.V.V.V.p ( ( ( ( ( ( ( ( q.M.m.m.m.m.m.m.m.m.m.M.x.3.3.3., - - - - 3 z z z z z z 7 - - - - - F 3.3.3.3.3.3.3.3.6.b.m.m.m.m.m.m.u V.V.V.V.V.V.V.V.V.V.V.V.V.V.",
"V.V.V.V.V.t ( ( ( ( ( ( ( ( l.m.m.m.m.m.m.m.m.m.m.x.3.3.3.3.2 - - - - 1 z z z z z z k - - - - - 2 -.3.3.3.3.3.3.0.m.m.m.m.m.m.m.m.# V.V.V.V.V.V.V.V.V.V.V.V.V.V.",
"V.V.V.V.V.9 ( ( ( ( ( ( ( ( <.m.m.m.m.m.m.m.m.M.q.3.3.3.3.3.2 - - - - 1 z z z z z z z 1 - - - - ;  .3.3.3.3.3.0.M.m.m.m.m.m.m.m.3.V.V.V.V.V.V.V.V.V.V.V.V.V.V.V.",
"V.V.V.V.V.o _ _ / / _ / / / ) m.m.m.m.m.m.m.M.q.3.3.3.3.3.3.2 - - - - 1 z z z ' z z ' f - - - - - D 3.3.3.3.0.m.m.m.m.m.m.m.m.m.q V.V.V.V.V.V.V.V.V.V.V.V.V.V.V.",
"V.V.V.V.V.. W / / _ / / _ / / l.m.m.m.m.m.M.0.3.3.3.3.3.3.3., - - - - 1 z z z ' z ' ' k - - - - - 2 3.3.-.v.m.m.m.m.m.m.m.m.m.z.. V.V.V.V.V.V.V.V.V.V.V.V.V.V.V.",
"V.V.V.V.V.V.t ( / / _ _ ( ( / ,.m.m.m.m.M.6.3.3.3.3.3.3.3.3.2 - - - - 1 z z ' ' z z ' ' 3 - - - - - ] 3.c.m.m.m.m.m.m.m.m.m.b.^ V.V.V.V.V.V.V.V.V.V.V.V.V.V.V.V.",
"V.V.V.V.V.V.@ ( _ / / / ( ( ( ( c.m.m.b.6.3.3.3.3.3.3.3.3.+.> - - - - < z z ' ' z z ' ' [ - - - - - > ..m.m.m.m.m.m.m.m.m.c.3.r V.V.V.V.V.V.V.V.V.V.V.V.V.V.V.V.",
"V.V.V.V.V.V.. W ( ( ( ( ( ( ( ( <.m.v.6.3.3.3.3.3.3.=.M 4 , - - - - - - < 5 6 ' z z z z :.C - - - - - ; x N Z w.m.m.m.m.z.3.6.# V.V.V.V.V.V.V.V.V.V.V.V.V.V.V.V.",
"V.V.V.V.V.V.V.0 ( ( ( ( ( ( ( ( ( q.6.3.3.3.3.3.3.3.=.; - - - - - - - - - - - l z z z z 2.3.D ; - - - - - - - { m.m.m.0.3.3.&.. V.V.V.V.V.V.V.V.V.V.V.V.V.V.V.V.",
"V.V.V.V.V.V.V.X ~ ( ( ( ( ( ( ( ( ` 6.3.3.3.3.3.3.3.-.G G G G G G G G S 7 7 7 z z z z z :.3.3.;.J m c c c m V w.m.b.6.3.3.6.) ~ ~ ~ ~ ~ ~ ~ ~ Q X V.V.V.V.V.V.V.",
"V.V.V.V.V.V.V.V.t ( ( ( ( ( ( ( ( ( @.3.3.3.3.3.3.3.M.m.m.m.m.m.m.m.m.g.z z z z z z z z 6.3.z.m.m.m.m.m.m.m.m.m.v.6.3.3.3.#._ _ ( ( ( ( ( ( ( t V.V.V.V.V.V.V.V.",
"V.V.V.V.V.V.V.V.X ! ( ( ( ( ( ( ( ( ( 1.3.3.3.3.0.m.m.m.m.m.m.m.m.m.z.a.z z z z z z z z >.c.m.m.m.m.m.m.m.m.M.l.6.-.3.3.%._ ( ( ( ( ( ( ( ( ! X V.V.V.V.V.V.V.V.",
"V.V.V.V.V.V.V.V.V.e ( / ( ( ( ( ( ( ( ) 7.3.3.q.m.m.m.m.m.m.M.n.N.g.a.i.z z z z z T z z p.j.N.N.n.m.m.m.m.M.0.3.3.3.6.2.( ( ( ( ( ( ( ( ( ( e V.V.V.V.V.V.V.V.V.",
"V.V.V.V.V.V.V.V.V.. E _ ( ( ( ( ( ( ( ( ) 1.0.m.m.m.m.m.m.m.h.i.B.' z z z z z z B.B.B.B.z z z z i.N.m.m.v.6.3.3.3.6.%.) ( ( ( ( ( ( ( ( ( E . V.V.V.V.V.V.V.V.V.",
"V.V.V.V.V.V.V.V.V.V.% ( ( ( ( ( ( ( ( ( / ` l.m.m.m.m.m.m.m.h.T ' ' z z z z z z B.B.T i.z z z z z j.m.v.6.3.3.3.3.2.) ( ( ( ( ( ( ( ( ( ( % V.V.V.V.V.V.V.V.V.V.",
"V.V.V.V.V.V.V.V.V.V.V.t ( ( ( ( ( ( ( ( ( ( ( 9.m.M.M.m.m.b.d.i.i.i.i.i.i.i.i.i.i.i.i.i.i.i.i.i.i.N.z.-.3.3.3.6.%.( ( ( ( ( ( ( ( ( ( ( t V.V.V.V.V.V.V.V.V.V.V.",
"V.V.V.V.V.V.V.V.V.V.V.. s ( ( ( ( ( ( ( ( ( ( ( ,.b.m.m.b.6.:.>.>.>.:.*.>.>.:.g.n.n.N.N.N.N.n.N.N.0.3.3.3.3.6.@.( ( ( ( ( ( ( ( ( ( ( s . V.V.V.V.V.V.V.V.V.V.V.",
"V.V.V.V.V.V.V.V.V.V.V.V.O Q ( ( ( ( ( ( ( ( ( ( ( ` 0.v.6.3.3.3.3.3.3.3.3.3.z.m.m.m.m.m.m.m.m.b.6.3.3.3.3.1.` ( ( ( ( ( ( ( ( ( ( ( Q O V.V.V.V.V.V.V.V.V.V.V.V.",
"V.V.V.V.V.V.V.V.V.V.V.V.V.O Q ( ( ( ( ( ( ( ( ( ( / ( @.2.3.3.3.3.3.3.3.3.v.m.m.m.m.m.m.m.m.v.6.3.3.3.1.@.) ( ( ( ( ( ( ( ( ( ( ( Q O V.V.V.V.V.V.V.V.V.V.V.V.V.",
"V.V.V.V.V.V.V.V.V.V.V.V.V.V.& _ ( ( ( ( ( ( ( ( ( ( ( ( _ @.%.6.3.3.3.3.b.m.m.m.m.m.m.m.m.z.3.3.3.1.@.( ( ( ( ( ( ( ( ( ( ( ( ( _ & V.V.V.V.V.V.V.V.V.V.V.V.V.V.",
"V.V.V.V.V.V.V.V.V.V.V.V.V.V.V.& Q ( ( ( ( ( ( ( ( ( ( ( ( ( / ) @.%.7.b.m.m.m.m.m.m.m.M.0.3.%.@.) ( ( ( ( ( ( ( ( ( ( ( ( ( ( Q & V.V.V.V.V.V.V.V.V.V.V.V.V.V.V.",
"V.V.V.V.V.V.V.V.V.V.V.V.V.V.V.V.O Q ( ( ( ( ( ( ( ( ( ( ( ( / / ( ( / ) ` ,.o.<.O.o.1.@.` / ( ( / ( ( ( ( ( ( ( ( ( ( ( ( ( Q O V.V.V.V.V.V.V.V.V.V.V.V.V.V.V.V.",
"V.V.V.V.V.V.V.V.V.V.V.V.V.V.V.V.V.O s ( ( ( ( ( ( ( ( ( ( ( ( ( ( ( ( ( _ ( ( ( ( ( ( ( ( ( ( ( ( ( ( ( ( ( ( ( ( ( ( _ ( s O V.V.V.V.V.V.V.V.V.V.V.V.V.V.V.V.V.",
"V.V.V.V.V.V.V.V.V.V.V.V.V.V.V.V.V.V.. t _ / ( ( ( ( ( ( ( ( ( ( ( ( ( ( ( ( ( ( ( ( ( ( ( ( ( ( ( ( ( ( ( ( ( ( ( ( ( ( t . V.V.V.V.V.V.V.V.V.V.V.V.V.V.V.V.V.V.",
"V.V.V.V.V.V.V.V.V.V.V.V.V.V.V.V.V.V.V.V.% E ( ( ( ( ( ( ( ( ( ( ( ( ( ( ( ( ( ( ( ( ( ( ( ( ( ( ( ( ( ( ( ( ( ( ( ( E % V.V.V.V.V.V.V.V.V.V.V.V.V.V.V.V.V.V.V.V.",
"V.V.V.V.V.V.V.V.V.V.V.V.V.V.V.V.V.V.V.V.V.. 0 ! ( ( ( ( ( ( ( ( ( ( ( ( ( ( ( ( ( ( ( ( ( ( ( ( ( ( ( ( ( ( ( ( ! 0 . V.V.V.V.V.V.V.V.V.V.V.V.V.V.V.V.V.V.V.V.V.",
"V.V.V.V.V.V.V.V.V.V.V.V.V.V.V.V.V.V.V.V.V.V.V.X t ~ ( ( ( ( ( ( ( ( ( ( ( ( ( ( ( ( ( ( ( ( ( ( ( ( ( ( ( ( ~ t X V.V.V.V.V.V.V.V.V.V.V.V.V.V.V.V.V.V.V.V.V.V.V.",
"V.V.V.V.V.V.V.V.V.V.V.V.V.V.V.V.V.V.V.V.V.V.V.V.V.X 0 W ( ( ( ( ( ( ( ( ( ( ( ( ( ( ( ( / _ _ _ ( _ ( ( Q 0 X V.V.V.V.V.V.V.V.V.V.V.V.V.V.V.V.V.V.V.V.V.V.V.V.V.",
"V.V.V.V.V.V.V.V.V.V.V.V.V.V.V.V.V.V.V.V.V.V.V.V.V.V.V.. @ t W _ ( ( ( ( ( ( ( ( ( ( ( / / / / _ ( Q t @   V.V.V.V.V.V.V.V.V.V.V.V.V.V.V.V.V.V.V.V.V.V.V.V.V.V.V.",
"V.V.V.V.V.V.V.V.V.V.V.V.V.V.V.V.V.V.V.V.V.V.V.V.V.V.V.V.V.V.  o 9 t p ! ` ( / ( / / _ ` Q p t 9 X . V.V.V.V.V.V.V.V.V.V.V.V.V.V.V.V.V.V.V.V.V.V.V.V.V.V.V.V.V.V.",
"V.V.V.V.V.V.V.V.V.V.V.V.V.V.V.V.V.V.V.V.V.V.V.V.V.V.V.V.V.V.V.V.V.V.V.V.V.V.V.o o V.V.V.V.V.V.V.V.V.V.V.V.V.V.V.V.V.V.V.V.V.V.V.V.V.V.V.V.V.V.V.V.V.V.V.V.V.V.V.",
"V.V.V.V.V.V.V.V.V.V.V.V.V.V.V.V.V.V.V.V.V.V.V.V.V.V.V.V.V.V.V.V.V.V.V.V.V.V.V.V.V.V.V.V.V.V.V.V.V.V.V.V.V.V.V.V.V.V.V.V.V.V.V.V.V.V.V.V.V.V.V.V.V.V.V.V.V.V.V.V.",
"V.V.V.V.V.V.V.V.V.V.V.V.V.V.V.V.V.V.V.V.V.V.V.V.V.V.V.V.V.V.V.V.V.V.V.V.V.V.V.V.V.V.V.V.V.V.V.V.V.V.V.V.V.V.V.V.V.V.V.V.V.V.V.V.V.V.V.V.V.V.V.V.V.V.V.V.V.V.V.V.",
"V.V.V.V.V.V.V.V.V.V.V.V.V.V.V.V.V.V.V.V.V.V.V.V.V.V.V.V.V.V.V.V.V.V.V.V.V.V.V.V.V.V.V.V.V.V.V.V.V.V.V.V.V.V.V.V.V.V.V.V.V.V.V.V.V.V.V.V.V.V.V.V.V.V.V.V.V.V.V.V.",
"V.V.V.V.V.V.V.V.V.V.V.V.V.V.V.V.V.V.V.V.V.V.V.V.V.V.V.V.V.V.V.V.V.V.V.V.V.V.V.V.V.V.V.V.V.V.V.V.V.V.V.V.V.V.V.V.V.V.V.V.V.V.V.V.V.V.V.V.V.V.V.V.V.V.V.V.V.V.V.V."
};
